<?xml version="1.0" encoding="iso-8859-1"?>
<!-- Uploaded to: SVG Repo, www.svgrepo.com, Generator: SVG Repo Mixer Tools -->
<svg height="800px" width="800px" version="1.1" id="Layer_1" xmlns="http://www.w3.org/2000/svg" xmlns:xlink="http://www.w3.org/1999/xlink" 
	 viewBox="0 0 512 512" xml:space="preserve">
<path d="M102.997,18.036c-4.081-4.079-10.696-4.079-14.778,0l-22.39,22.39V10.449C65.829,4.678,61.15,0,55.38,0
	S44.931,4.678,44.931,10.449v29.977l-22.391-22.39c-4.081-4.079-10.696-4.079-14.778,0c-4.08,4.08-4.08,10.697,0,14.778
	L47.99,73.043c2.041,2.04,4.715,3.061,7.388,3.061c2.674,0,5.348-1.021,7.388-3.061l40.229-40.229
	C107.078,28.733,107.078,22.116,102.997,18.036z"/>
<path d="M88.22,342.13l-22.391,22.39v-29.977c0-5.77-4.679-10.449-10.449-10.449s-10.449,4.679-10.449,10.449v29.977l-22.391-22.391
	c-4.081-4.079-10.696-4.079-14.778,0c-4.08,4.08-4.08,10.697,0,14.778l40.229,40.229c2.042,2.04,4.715,3.061,7.39,3.061
	c2.675,0,5.348-1.021,7.388-3.06l40.229-40.229c4.08-4.08,4.08-10.697,0-14.778C98.915,338.05,92.301,338.05,88.22,342.13z"/>
<path d="M504.237,342.13c-4.081-4.079-10.696-4.079-14.778,0l-22.39,22.39v-29.977c0-5.77-4.679-10.449-10.449-10.449
	s-10.449,4.679-10.449,10.449v29.977l-22.391-22.391c-4.081-4.079-10.696-4.079-14.778,0c-4.08,4.08-4.08,10.697,0,14.778
	l40.229,40.229c2.042,2.04,4.715,3.061,7.39,3.061s5.348-1.021,7.388-3.06l40.229-40.229
	C508.319,352.826,508.319,346.21,504.237,342.13z"/>
<path style="fill:#348E00;" d="M494.26,501.551c4.548-5.428,7.291-12.422,7.291-20.058c0-17.261-13.993-31.254-31.254-31.254
	c-0.621,0-1.235,0.023-1.847,0.059c-6.99-15.96-22.917-27.114-41.456-27.114c-20.021,0-36.994,13.008-42.956,31.03
	c-4.512-2.528-9.71-3.975-15.249-3.975c-17.261,0-31.254,13.993-31.254,31.254c0,7.636,2.742,14.63,7.291,20.058H494.26z"/>
<path d="M494.26,512H344.827c-3.091,0-6.024-1.369-8.009-3.738c-6.276-7.49-9.731-16.996-9.731-26.769
	c0-22.995,18.708-41.703,41.703-41.703c3.291,0,6.568,0.393,9.751,1.158c9.743-17.222,28.089-28.213,48.453-28.213
	c19.828,0,37.976,10.525,47.919,27.309C495.745,442.347,512,460.057,512,481.493c0,9.774-3.457,19.28-9.731,26.769
	C500.284,510.631,497.351,512,494.26,512z M350.324,491.102h138.437c1.541-2.937,2.341-6.194,2.341-9.609
	c0-11.472-9.333-20.805-20.805-20.805c-0.416,0-0.828,0.018-1.239,0.042c-4.352,0.233-8.425-2.235-10.179-6.24
	c-5.549-12.67-18.065-20.857-31.885-20.857c-15.037,0-28.314,9.59-33.034,23.862c-0.98,2.961-3.231,5.331-6.139,6.46
	c-2.908,1.127-6.168,0.9-8.888-0.625c-3.086-1.728-6.593-2.642-10.144-2.642c-11.472,0-20.805,9.333-20.805,20.805
	C347.983,484.907,348.784,488.165,350.324,491.102z"/>
<path style="fill:#348E00;" d="M167.174,501.551c4.548-5.428,7.291-12.422,7.291-20.058c0-17.261-13.992-31.254-31.254-31.254
	c-0.621,0-1.235,0.023-1.847,0.059c-6.991-15.96-22.917-27.114-41.456-27.114c-20.021,0-36.994,13.008-42.956,31.03
	c-4.512-2.528-9.71-3.975-15.249-3.975c-17.262,0-31.254,13.992-31.254,31.254c0,7.636,2.742,14.63,7.291,20.058H167.174z"/>
<path d="M167.173,512H17.74c-3.091,0-6.024-1.369-8.009-3.738C3.457,500.774,0,491.267,0,481.493
	c0-22.995,18.708-41.703,41.703-41.703c3.291,0,6.567,0.393,9.75,1.158c9.743-17.222,28.09-28.213,48.455-28.213
	c19.828,0,37.976,10.525,47.919,27.309c20.832,2.303,37.087,20.013,37.087,41.449c0,9.774-3.457,19.279-9.731,26.769
	C173.197,510.631,170.264,512,167.173,512z M23.239,491.102h138.436c1.541-2.937,2.341-6.195,2.341-9.609
	c0-11.472-9.333-20.805-20.805-20.805c-0.415,0-0.828,0.018-1.238,0.042c-4.349,0.233-8.425-2.235-10.18-6.24
	c-5.549-12.67-18.064-20.857-31.884-20.857c-15.038,0-28.315,9.59-33.035,23.862c-0.98,2.961-3.232,5.331-6.139,6.46
	c-2.908,1.127-6.169,0.9-8.889-0.626c-3.085-1.727-6.591-2.64-10.142-2.64c-11.472,0-20.805,9.333-20.805,20.805
	C20.898,484.908,21.698,488.165,23.239,491.102z"/>
<path style="fill:#FFFFFF;" d="M419.674,206.701c0,0,10.302-18.353,10.302-38.297c0-25.078,0-89.903,0-89.903H312.058
	c-34.048,0-95.241,22.988-95.241,90.989v-40.793c0-34.048-27.601-61.649-61.649-61.649s-61.649,27.601-61.649,61.649v117.918
	c0,34.048,22.988,95.241,90.989,95.241c0,0,111.722,0,147.248,0s45.975-27.599,45.975-56.641c0-2.852,0-5.657,0-8.404l65.829-25.861
	L419.674,206.701z"/>
<path d="M155.167,147.506c-6.337,0-11.494-5.157-11.494-11.494s5.157-11.494,11.494-11.494s11.494,5.157,11.494,11.494
	S161.505,147.506,155.167,147.506z"/>
<path d="M203.365,311.502c-43.263,0-63.088-28.148-71.053-44.929c-2.475-5.213-0.256-11.446,4.957-13.92
	c5.211-2.479,11.446-0.257,13.92,4.957c7.146,15.052,21.999,32.994,52.176,32.994c5.77,0,10.449,4.679,10.449,10.449
	S209.135,311.502,203.365,311.502z"/>
<path d="M452.754,245.988l-21.195-39.266c5.688-11.447,8.865-24.94,8.865-38.317V78.501c0-5.77-4.679-10.449-10.449-10.449H312.058
	c-17.572,0-44.281,5.778-66.542,21.998c-6.837,4.981-14.172,11.63-20.627,20.292c-8.14-30.891-36.309-53.741-69.722-53.741
	c-35.86,0-65.678,26.319-71.179,60.652l-22.936,22.936c-2.987,2.988-3.882,7.483-2.265,11.387c1.618,3.904,5.427,6.45,9.654,6.45
	h14.629v88.591c0,17.572,5.778,44.281,21.998,66.541c13.012,17.86,37.357,39.149,79.439,39.149h3.052v22.839l-15.657,15.657
	c-4.08,4.08-4.08,10.697,0,14.778c4.081,4.079,10.696,4.079,14.778,0l11.329-11.329l11.329,11.329c2.041,2.04,4.715,3.06,7.388,3.06
	c2.674,0,5.348-1.021,7.388-3.06c4.08-4.08,4.08-10.697,0-14.778l-15.657-15.658v-22.839h45.976v22.839l-15.657,15.657
	c-4.08,4.08-4.08,10.697,0,14.778c4.081,4.079,10.696,4.079,14.778,0l11.329-11.329l11.329,11.329
	c2.041,2.04,4.715,3.061,7.388,3.061s5.348-1.021,7.388-3.061c4.08-4.08,4.08-10.697,0-14.778l-15.658-15.657v-22.839h56.424
	c35.858,0,56.424-24.453,56.424-67.089v-1.284l59.2-23.257c2.784-1.094,4.965-3.327,5.992-6.135
	C454.399,251.734,454.174,248.62,452.754,245.988z M374.596,221.088h-86.727c-5.77,0-10.449,4.679-10.449,10.449
	s4.679,10.449,10.449,10.449h79.412v43.232c0,46.191-26.74,46.191-35.527,46.191H184.507c-65.744,0-80.54-62.794-80.54-84.791
	V128.698c0-28.232,22.968-51.2,51.2-51.2s51.2,22.968,51.2,51.2v40.793v14.461v12.795c0,5.77,4.679,10.449,10.449,10.449
	s10.449-4.679,10.449-10.449v-12.795v-14.461c0-65.744,62.795-80.541,84.792-80.541h107.469v17.366
	c0,12.597-3.813,25.713-10.202,35.086C401.366,153.08,389.681,159,374.596,159h-86.727c-5.77,0-10.449,4.679-10.449,10.449
	s4.679,10.449,10.449,10.449h86.727c18.098,0,33.426-6.206,44.931-18.051v6.557c0,12.597-3.813,25.713-10.202,35.086
	C401.366,215.167,389.682,221.088,374.596,221.088z M388.18,261.48v-20.78c11.503-2.22,21.54-7.355,29.763-15.212l10.821,20.047
	L388.18,261.48z"/>
<path d="M133.715,238.734c-5.77,0-10.449-4.679-10.449-10.449v-0.138c0-5.77,4.679-10.449,10.449-10.449s10.449,4.679,10.449,10.449
	v0.138C144.164,234.055,139.484,238.734,133.715,238.734z"/>
</svg>